<?xml version="1.0" encoding="UTF-8"?>
<svg width="1200pt" height="1200pt" version="1.1" viewBox="0 0 1200 1200" xmlns="http://www.w3.org/2000/svg">
 <path d="m1200 600c0 214.36-114.36 412.44-300 519.62-185.64 107.18-414.36 107.18-600 0-185.64-107.18-300-305.26-300-519.62s114.36-412.44 300-519.62c185.64-107.18 414.36-107.18 600 0 185.64 107.18 300 305.26 300 519.62" fill="#d2d2d2"/>
 <path d="m497.66 474.04c0-56.5 45.816-102.32 102.35-102.32s102.35 45.816 102.35 102.32c0 56.531-45.816 102.35-102.35 102.35s-102.35-45.816-102.35-102.35zm192.35 119.47c36.164-27.277 59.57-70.641 59.57-119.47 0-82.598-66.98-149.55-149.58-149.55s-149.58 66.953-149.58 149.55c0 48.824 23.41 92.191 59.57 119.47-90.219 35.836-154.04 123.92-154.04 226.92 0 13.02 10.598 23.617 23.617 23.617 13.047 0 23.617-10.598 23.617-23.617 0-108.7 88.117-196.81 196.81-196.81s196.81 88.117 196.81 196.81c0 13.02 10.566 23.617 23.617 23.617 13.02 0 23.617-10.598 23.617-23.617 0-103-63.824-191.08-154.04-226.92z" fill-rule="evenodd"/>
</svg>
