<?xml version="1.0" encoding="UTF-8"?>
<svg width="1200pt" height="1200pt" version="1.1" viewBox="0 0 1200 1200" xmlns="http://www.w3.org/2000/svg">
 <path d="m1200 600c0 214.36-114.36 412.44-300 519.62-185.64 107.18-414.36 107.18-600 0-185.64-107.18-300-305.26-300-519.62s114.36-412.44 300-519.62c185.64-107.18 414.36-107.18 600 0 185.64 107.18 300 305.26 300 519.62" fill="#d2d2d2"/>
 <path d="m771.12 515.34-87.668-87.668-338.09 339.29-1.0664 88.738 88.738-1.0664z"/>
 <path d="m839.01 448.67c9.2227-9.2227 9.2227-24.176 0-33.398l-54.273-54.273c-9.2227-9.2227-24.176-9.2227-33.398 0l-41.75 41.746 87.672 87.672z"/>
</svg>
