<?xml version="1.0" encoding="UTF-8"?>
<svg width="1200pt" height="1200pt" version="1.1" viewBox="0 0 1200 1200" xmlns="http://www.w3.org/2000/svg">
 <path d="m1019.7 249.56h-91.266l0.046875-208.03h91.266v208.03zm-91.266 548.44v157.87c0 61.031-50.297 111.33-111.33 111.33s-111.33-50.297-111.33-111.33v-27.141h-91.266v27.141c0 111.42 91.172 202.6 202.6 202.6 111.42 0 202.6-91.172 202.6-202.6v-165.05c-18.422 4.6875-37.688 7.2188-57.516 7.2188h-33.75zm230.44-450.14v216.94c0 108.33-88.359 196.69-196.69 196.69h-148.87c-57.281 0-105.98-34.641-124.74-88.734l-22.219-63.984c-9.9844-28.781-35.906-47.203-66.375-47.203s-56.344 18.422-66.375 47.203l-22.219 63.984c-18.797 54.094-67.5 88.734-124.74 88.734h-148.87c-108.33 0-196.69-88.359-196.69-196.69v-216.94c0-34.031 27.75-61.828 61.828-61.828h994.18c34.031 0 61.828 27.75 61.828 61.828zm-68.438 6.6094-980.9 0.046875v210.32c0 70.547 57.703 128.26 128.26 128.26h148.87c28.125 0 50.859-16.172 60.094-42.75l22.219-63.984c19.547-56.297 71.391-93.188 131.02-93.188s111.47 36.891 131.02 93.188l22.219 63.984c9.2344 26.578 31.969 42.75 60.094 42.75h148.87c70.547 0 128.26-57.703 128.26-128.26zm-354.1 462.42h-152.34v75.281h152.34zm-243.66 80.062c0-24.141-19.688-43.781-43.781-43.781-24.141 0-43.781 19.688-43.781 43.781 0 24.141 19.688 43.781 43.781 43.781 24.141 0 43.781-19.688 43.781-43.781zm-227.21-6.8438c-24.141 0-43.781 19.688-43.781 43.781 0 24.141 19.688 43.781 43.781 43.781 24.141 0 43.781-19.688 43.781-43.781 0-24.141-19.688-43.781-43.781-43.781zm240.89 139.64c-24.141 0-43.781 19.688-43.781 43.781 0 24.141 19.688 43.781 43.781 43.781 24.141 0 43.781-19.688 43.781-43.781 0-24.141-19.688-43.781-43.781-43.781zm-149.16-820.55c24.141 0 43.781-19.688 43.781-43.781 0-24.141-19.688-43.781-43.781-43.781-24.141 0-43.781 19.688-43.781 43.781 0 24.141 19.688 43.781 43.781 43.781zm-131.95 378.56 141.52-141.52c7.125-7.125 7.125-18.703 0-25.828s-18.703-7.125-25.828 0l-141.52 141.52c-7.125 7.125-7.125 18.703 0 25.828s18.703 7.125 25.828 0zm68.625 15.328c7.125 7.125 18.703 7.125 25.828 0l151.03-151.03c7.125-7.125 7.125-18.703 0-25.828s-18.703-7.125-25.828 0l-151.03 151.03c-7.125 7.125-7.125 18.703 0 25.828z" fill="#45dee0"/>
</svg>
